<svg width="16.000000" height="16.000000" viewBox="0 0 16 16" fill="none" xmlns="http://www.w3.org/2000/svg" xmlns:xlink="http://www.w3.org/1999/xlink">
	<desc>
			Created with Pixso.
	</desc>
	<defs>
		<clipPath id="clip1_104">
			<rect id="Icon/16/briefcase" width="16.000000" height="16.000000" fill="white" fill-opacity="0"/>
		</clipPath>
	</defs>
	<rect id="Icon/16/briefcase" width="16.000000" height="16.000000" fill="#FFFFFF" fill-opacity="0"/>
	<g clip-path="url(#clip1_104)">
		<path id="Vector" d="M5.75 1.5L10.25 1.5C10.38 1.5 10.5 1.61 10.5 1.75L10.5 3L5.5 3L5.5 1.75C5.5 1.61 5.61 1.5 5.75 1.5ZM4 1.75L4 3L2 3C0.89 3 0 3.89 0 5L0 8L6 8L10 8L16 8L16 5C16 3.89 15.1 3 14 3L12 3L12 1.75C12 0.78 11.21 0 10.25 0L5.75 0C4.78 0 4 0.78 4 1.75ZM16 9L10 9L10 10C10 10.55 9.55 11 9 11L7 11C6.44 11 6 10.55 6 10L6 9L0 9L0 13C0 14.1 0.89 15 2 15L14 15C15.1 15 16 14.1 16 13L16 9Z" fill="#5C89CE" fill-opacity="1.000000" fill-rule="nonzero"/>
	</g>
</svg>
