<svg width="16.000000" height="17.000000" viewBox="0 0 16 17" fill="none" xmlns="http://www.w3.org/2000/svg" xmlns:xlink="http://www.w3.org/1999/xlink">
	<desc>
			Created with Pixso.
	</desc>
	<defs/>
	<path id="Vector" d="M15.95 5.74C15.9 5.59 15.81 5.46 15.69 5.37C15.56 5.27 15.41 5.21 15.26 5.2L10.7 4.84L8.72 0.47C8.66 0.33 8.56 0.21 8.43 0.12C8.3 0.04 8.15 0 8 0C7.84 0 7.69 0.04 7.56 0.12C7.43 0.21 7.33 0.33 7.27 0.47L5.29 4.84L0.73 5.2C0.58 5.21 0.43 5.27 0.31 5.36C0.19 5.45 0.1 5.58 0.04 5.72C-0.01 5.87 -0.02 6.03 0.02 6.18C0.05 6.33 0.13 6.46 0.24 6.57L3.61 9.85L2.41 15.02C2.38 15.17 2.39 15.34 2.45 15.49C2.51 15.64 2.61 15.76 2.74 15.86C2.87 15.95 3.03 16 3.19 16C3.35 16 3.51 15.95 3.64 15.86L8 12.96L12.35 15.86C12.49 15.95 12.65 16 12.81 16C12.98 15.99 13.13 15.94 13.27 15.84C13.4 15.75 13.5 15.61 13.55 15.46C13.6 15.3 13.61 15.13 13.56 14.98L12.1 9.86L15.73 6.59C15.97 6.38 16.06 6.04 15.95 5.74Z" fill="#5C89CE" fill-opacity="1.000000" fill-rule="nonzero"/>
</svg>
