<svg width="17.000000" height="16.000000" viewBox="0 0 17 16" fill="none" xmlns="http://www.w3.org/2000/svg" xmlns:xlink="http://www.w3.org/1999/xlink">
	<desc>
			Created with Pixso.
	</desc>
	<defs/>
	<path id="Line 3" d="M1 3.39L15 12.39" stroke="#5C89CE" stroke-opacity="1.000000" stroke-width="2.000000" stroke-linecap="round"/>
	<path id="Subtract" d="M2.88379 4.02832L5.11523 5.45166C5.13379 5.43213 5.15283 5.41309 5.17188 5.39355C5.92188 4.64355 6.93945 4.22217 8.00049 4.22217C9.06104 4.22217 10.0786 4.64355 10.8286 5.39355C11.5786 6.14404 12.0005 7.16113 12.0005 8.22217C12.0005 8.72266 11.9067 9.21338 11.7285 9.6709L14.2388 11.2725C15.0542 10.3086 15.6226 9.30908 15.9336 8.56396C16.0254 8.34424 16.0254 8.1001 15.9336 7.88037C15.5195 6.88867 14.6504 5.44434 13.3501 4.23877C12.042 3.02246 10.2446 2 8.00049 2C5.88672 2 4.16943 2.90674 2.88379 4.02832ZM11.4399 13.5776L9.08203 12.0732C8.73291 12.1714 8.36914 12.2222 8.00049 12.2222C6.93945 12.2222 5.92188 11.8008 5.17188 11.0508C4.57471 10.4536 4.18604 9.6875 4.05225 8.86475L0.666992 6.70508C0.413086 7.13232 0.213379 7.53418 0.0698242 7.88037C-0.0219727 8.1001 -0.0219727 8.34424 0.0698242 8.56396C0.480957 9.55566 1.3501 11 2.65039 12.2056C3.9585 13.4224 5.75586 14.4443 8.00049 14.4443C9.29932 14.4443 10.4487 14.1021 11.4399 13.5776ZM6.48877 10.4189C6.53809 10.4526 6.58838 10.4849 6.63965 10.5151L6.48877 10.4189ZM10.5698 8.93164C10.6929 8.48828 10.7026 8.00684 10.5752 7.53076C10.2671 6.37793 9.24756 5.60254 8.11426 5.55566C7.95312 5.5498 7.8584 5.7251 7.90869 5.88037C7.9668 6.05811 8.00049 6.24707 8.00049 6.44434C8.00049 6.70996 7.94189 6.96191 7.8374 7.18848L10.5698 8.93164Z" clip-rule="evenodd" fill="#5C89CE" fill-opacity="1.000000" fill-rule="evenodd"/>
</svg>
