<svg width="16.000000" height="16.000000" viewBox="0 0 16 16" fill="none" xmlns="http://www.w3.org/2000/svg" xmlns:xlink="http://www.w3.org/1999/xlink">
	<desc>
			Created with Pixso.
	</desc>
	<defs>
		<clipPath id="clip1_118">
			<rect id="Icon/16/filter-solid" width="16.000000" height="16.000000" fill="white" fill-opacity="0"/>
		</clipPath>
	</defs>
	<g clip-path="url(#clip1_118)">
		<path id="Vector" d="M0.12 1.71C0.32 1.27 0.76 1 1.25 1L14.75 1C15.23 1 15.67 1.27 15.87 1.71C16.08 2.15 16.02 2.66 15.71 3.04L10 10.02L10 14C10 14.37 9.78 14.72 9.44 14.89C9.1 15.06 8.7 15.02 8.39 14.79L6.39 13.29C6.14 13.11 6 12.81 6 12.5L6 10.02L0.28 3.04C-0.03 2.66 -0.09 2.14 0.12 1.71Z" fill="#5C89CE" fill-opacity="1.000000" fill-rule="nonzero"/>
	</g>
</svg>
