<svg width="170" height="18" viewBox="0 0 170 18" fill="none" xmlns="http://www.w3.org/2000/svg">
<path d="M153.521 17.6067V0.393555H161.808C163.415 0.393555 164.8 0.65585 165.964 1.18044C167.144 1.70503 168.054 2.45913 168.694 3.44274C169.333 4.40995 169.653 5.55749 169.653 6.88536C169.653 8.21323 169.333 9.36077 168.694 10.328C168.054 11.2952 167.144 12.0493 165.964 12.5903C164.8 13.1149 163.415 13.3772 161.808 13.3772H156.743L159.325 10.8936V17.6067H153.521ZM159.325 11.5329L156.743 8.90175H161.44C162.243 8.90175 162.833 8.72143 163.21 8.36077C163.603 8.00011 163.8 7.50831 163.8 6.88536C163.8 6.26241 163.603 5.7706 163.21 5.40995C162.833 5.04929 162.243 4.86897 161.44 4.86897H156.743L159.325 2.23782V11.5329Z" fill="#5C89CE"/>
<path d="M135.486 17.6067V0.393555H143.773C145.38 0.393555 146.765 0.65585 147.929 1.18044C149.109 1.70503 150.019 2.45913 150.658 3.44274C151.298 4.40995 151.617 5.55749 151.617 6.88536C151.617 8.21323 151.298 9.36077 150.658 10.328C150.019 11.2952 149.109 12.0493 147.929 12.5903C146.765 13.1149 145.38 13.3772 143.773 13.3772H138.708L141.29 10.8936V17.6067H135.486ZM141.29 11.5329L138.708 8.90175H143.404C144.208 8.90175 144.798 8.72143 145.175 8.36077C145.568 8.00011 145.765 7.50831 145.765 6.88536C145.765 6.26241 145.568 5.7706 145.175 5.40995C144.798 5.04929 144.208 4.86897 143.404 4.86897H138.708L141.29 2.23782V11.5329Z" fill="#5C89CE"/>
<path d="M113.804 17.6067L121.329 0.393555H127.034L134.558 17.6067H128.558L123.001 3.14765H125.263L119.706 17.6067H113.804ZM118.28 14.6067L119.755 10.4263H127.673L129.148 14.6067H118.28Z" fill="#5C89CE"/>
<path d="M89.9766 17.6067V0.393555H98.2634C99.87 0.393555 101.255 0.65585 102.419 1.18044C103.6 1.70503 104.509 2.45913 105.149 3.44274C105.788 4.40995 106.108 5.55749 106.108 6.88536C106.108 8.21323 105.788 9.36077 105.149 10.328C104.509 11.2788 103.6 12.0083 102.419 12.5165C101.255 13.0247 99.87 13.2788 98.2634 13.2788H93.1979L95.7798 10.8936V17.6067H89.9766ZM100.28 17.6067L96.0503 11.3362H102.198L106.477 17.6067H100.28ZM95.7798 11.5329L93.1979 8.90175H97.8946C98.6979 8.90175 99.288 8.72143 99.6651 8.36077C100.059 8.00011 100.255 7.50831 100.255 6.88536C100.255 6.26241 100.059 5.7706 99.6651 5.40995C99.288 5.04929 98.6979 4.86897 97.8946 4.86897H93.1979L95.7798 2.23782V11.5329Z" fill="#202020"/>
<path d="M78.7421 6.787H86.4143V10.9673H78.7421V6.787ZM79.1356 13.2296H87.7421V17.6067H73.4307V0.393555H87.4225V4.7706H79.1356V13.2296Z" fill="#202020"/>
<path d="M62.1953 6.787H69.8674V10.9673H62.1953V6.787ZM62.5887 13.2296H71.1953V17.6067H56.8838V0.393555H70.8756V4.7706H62.5887V13.2296Z" fill="#202020"/>
<path d="M38.5596 17.6067V0.393555H46.8465C48.453 0.393555 49.8383 0.65585 51.0022 1.18044C52.1825 1.70503 53.0924 2.45913 53.7317 3.44274C54.371 4.40995 54.6907 5.55749 54.6907 6.88536C54.6907 8.21323 54.371 9.36077 53.7317 10.328C53.0924 11.2788 52.1825 12.0083 51.0022 12.5165C49.8383 13.0247 48.453 13.2788 46.8465 13.2788H41.7809L44.3629 10.8936V17.6067H38.5596ZM48.8629 17.6067L44.6333 11.3362H50.7809L55.0596 17.6067H48.8629ZM44.3629 11.5329L41.7809 8.90175H46.4776C47.2809 8.90175 47.871 8.72143 48.2481 8.36077C48.6415 8.00011 48.8383 7.50831 48.8383 6.88536C48.8383 6.26241 48.6415 5.7706 48.2481 5.40995C47.871 5.04929 47.2809 4.86897 46.4776 4.86897H41.7809L44.3629 2.23782V11.5329Z" fill="#202020"/>
<path d="M16.8799 17.6067L24.4045 0.393555H30.1094L37.634 17.6067H31.634L26.0766 3.14765H28.3389L22.7815 17.6067H16.8799ZM21.3553 14.6067L22.8307 10.4263H30.7487L32.2241 14.6067H21.3553Z" fill="#202020"/>
<path d="M9.59017 18C8.21312 18 6.93443 17.7869 5.7541 17.3607C4.59016 16.918 3.57377 16.2951 2.70492 15.4918C1.85246 14.6885 1.18852 13.7377 0.713115 12.6393C0.237705 11.541 0 10.3279 0 9C0 7.67213 0.237705 6.45902 0.713115 5.36066C1.18852 4.26229 1.85246 3.31148 2.70492 2.5082C3.57377 1.70492 4.59016 1.09016 5.7541 0.663935C6.93443 0.221312 8.21312 0 9.59017 0C11.2787 0 12.7705 0.295082 14.0656 0.885246C15.3771 1.47541 16.459 2.32787 17.3115 3.44262L13.6475 6.71311C13.1393 6.07377 12.5738 5.58197 11.9508 5.23771C11.3443 4.87705 10.6557 4.69672 9.88525 4.69672C9.27869 4.69672 8.72951 4.79508 8.23771 4.9918C7.7459 5.18852 7.31967 5.47541 6.95902 5.85246C6.61475 6.22951 6.34426 6.68852 6.14754 7.22951C5.95082 7.7541 5.85246 8.34426 5.85246 9C5.85246 9.65574 5.95082 10.2541 6.14754 10.7951C6.34426 11.3197 6.61475 11.7705 6.95902 12.1475C7.31967 12.5246 7.7459 12.8115 8.23771 13.0082C8.72951 13.2049 9.27869 13.3033 9.88525 13.3033C10.6557 13.3033 11.3443 13.1311 11.9508 12.7869C12.5738 12.4262 13.1393 11.9262 13.6475 11.2869L17.3115 14.5574C16.459 15.6557 15.3771 16.5082 14.0656 17.1148C12.7705 17.7049 11.2787 18 9.59017 18Z" fill="#202020"/>
</svg>
