<svg width="170.000000" height="24.000000" viewBox="0 0 170 24" fill="none" xmlns="http://www.w3.org/2000/svg" xmlns:xlink="http://www.w3.org/1999/xlink">
	<desc>
			Created with Pixso.
	</desc>
	<defs/>
	<rect id="Logo / Desktop" width="170.000000" height="24.000000" fill="#FFFFFF" fill-opacity="0"/>
	<path id="Vector" d="M153.52 20.6L153.52 3.39L161.8 3.39C163.41 3.39 164.8 3.65 165.96 4.18C167.14 4.7 168.05 5.45 168.69 6.44C169.33 7.41 169.65 8.55 169.65 9.88C169.65 11.21 169.33 12.36 168.69 13.32C168.05 14.29 167.14 15.04 165.96 15.58C164.8 16.11 163.41 16.37 161.8 16.37L156.74 16.37L159.32 13.89L159.32 20.6L153.52 20.6ZM159.32 14.53L156.74 11.9L161.43 11.9C162.24 11.9 162.83 11.72 163.21 11.36C163.6 11 163.8 10.5 163.8 9.88C163.8 9.26 163.6 8.77 163.21 8.41C162.83 8.04 162.24 7.86 161.43 7.86L156.74 7.86L159.32 5.23L159.32 14.53Z" fill="#5C89CE" fill-opacity="1.000000" fill-rule="evenodd"/>
	<path id="Vector" d="M135.48 20.6L135.48 3.39L143.77 3.39C145.38 3.39 146.76 3.65 147.92 4.18C149.1 4.7 150.01 5.45 150.65 6.44C151.29 7.41 151.61 8.55 151.61 9.88C151.61 11.21 151.29 12.36 150.65 13.32C150.01 14.29 149.1 15.04 147.92 15.58C146.76 16.11 145.38 16.37 143.77 16.37L138.7 16.37L141.28 13.89L141.28 20.6L135.48 20.6ZM141.28 14.53L138.7 11.9L143.4 11.9C144.2 11.9 144.79 11.72 145.17 11.36C145.56 11 145.76 10.5 145.76 9.88C145.76 9.26 145.56 8.77 145.17 8.41C144.79 8.04 144.2 7.86 143.4 7.86L138.7 7.86L141.28 5.23L141.28 14.53Z" fill="#5C89CE" fill-opacity="1.000000" fill-rule="evenodd"/>
	<path id="Vector" d="M113.8 20.6L121.32 3.39L127.03 3.39L134.55 20.6L128.55 20.6L123 6.14L125.26 6.14L119.7 20.6L113.8 20.6ZM118.28 17.6L119.75 13.42L127.67 13.42L129.14 17.6L118.28 17.6Z" fill="#5C89CE" fill-opacity="1.000000" fill-rule="evenodd"/>
	<path id="Vector" d="M89.97 20.6L89.97 3.39L98.26 3.39C99.87 3.39 101.25 3.65 102.41 4.18C103.6 4.7 104.5 5.45 105.14 6.44C105.78 7.41 106.1 8.55 106.1 9.88C106.1 11.21 105.78 12.36 105.14 13.32C104.5 14.27 103.6 15 102.41 15.51C101.25 16.02 99.87 16.27 98.26 16.27L93.19 16.27L95.77 13.89L95.77 20.6L89.97 20.6ZM100.28 20.6L96.05 14.33L102.19 14.33L106.47 20.6L100.28 20.6ZM95.77 14.53L93.19 11.9L97.89 11.9C98.69 11.9 99.28 11.72 99.66 11.36C100.05 11 100.25 10.5 100.25 9.88C100.25 9.26 100.05 8.77 99.66 8.41C99.28 8.04 98.69 7.86 97.89 7.86L93.19 7.86L95.77 5.23L95.77 14.53Z" fill="#202020" fill-opacity="1.000000" fill-rule="nonzero"/>
	<path id="Vector" d="M78.74 9.78L86.41 9.78L86.41 13.96L78.74 13.96L78.74 9.78ZM79.13 16.22L87.74 16.22L87.74 20.6L73.43 20.6L73.43 3.39L87.42 3.39L87.42 7.77L79.13 7.77L79.13 16.22Z" fill="#202020" fill-opacity="1.000000" fill-rule="nonzero"/>
	<path id="Vector" d="M62.19 9.78L69.86 9.78L69.86 13.96L62.19 13.96L62.19 9.78ZM62.58 16.22L71.19 16.22L71.19 20.6L56.88 20.6L56.88 3.39L70.87 3.39L70.87 7.77L62.58 7.77L62.58 16.22Z" fill="#202020" fill-opacity="1.000000" fill-rule="nonzero"/>
	<path id="Vector" d="M38.55 20.6L38.55 3.39L46.84 3.39C48.45 3.39 49.83 3.65 51 4.18C52.18 4.7 53.09 5.45 53.73 6.44C54.37 7.41 54.69 8.55 54.69 9.88C54.69 11.21 54.37 12.36 53.73 13.32C53.09 14.27 52.18 15 51 15.51C49.83 16.02 48.45 16.27 46.84 16.27L41.78 16.27L44.36 13.89L44.36 20.6L38.55 20.6ZM48.86 20.6L44.63 14.33L50.78 14.33L55.05 20.6L48.86 20.6ZM44.36 14.53L41.78 11.9L46.47 11.9C47.28 11.9 47.87 11.72 48.24 11.36C48.64 11 48.83 10.5 48.83 9.88C48.83 9.26 48.64 8.77 48.24 8.41C47.87 8.04 47.28 7.86 46.47 7.86L41.78 7.86L44.36 5.23L44.36 14.53Z" fill="#202020" fill-opacity="1.000000" fill-rule="nonzero"/>
	<path id="Vector" d="M16.87 20.6L24.4 3.39L30.1 3.39L37.63 20.6L31.63 20.6L26.07 6.14L28.33 6.14L22.78 20.6L16.87 20.6ZM21.35 17.6L22.83 13.42L30.74 13.42L32.22 17.6L21.35 17.6Z" fill="#202020" fill-opacity="1.000000" fill-rule="nonzero"/>
	<path id="Vector" d="M9.59 21C8.21 21 6.93 20.78 5.75 20.36C4.59 19.91 3.57 19.29 2.7 18.49C1.85 17.68 1.18 16.73 0.71 15.63C0.23 14.54 0 13.32 0 12C0 10.67 0.23 9.45 0.71 8.36C1.18 7.26 1.85 6.31 2.7 5.5C3.57 4.7 4.59 4.08 5.75 3.66C6.93 3.22 8.21 3 9.59 3C11.27 3 12.77 3.29 14.06 3.88C15.37 4.47 16.45 5.32 17.31 6.44L13.64 9.71C13.13 9.07 12.57 8.58 11.95 8.23C11.34 7.87 10.65 7.69 9.88 7.69C9.27 7.69 8.72 7.79 8.23 7.99C7.74 8.18 7.31 8.47 6.95 8.85C6.61 9.22 6.34 9.68 6.14 10.22C5.95 10.75 5.85 11.34 5.85 12C5.85 12.65 5.95 13.25 6.14 13.79C6.34 14.31 6.61 14.77 6.95 15.14C7.31 15.52 7.74 15.81 8.23 16C8.72 16.2 9.27 16.3 9.88 16.3C10.65 16.3 11.34 16.13 11.95 15.78C12.57 15.42 13.13 14.92 13.64 14.28L17.31 17.55C16.45 18.65 15.37 19.5 14.06 20.11C12.77 20.7 11.27 21 9.59 21Z" fill="#202020" fill-opacity="1.000000" fill-rule="nonzero"/>
</svg>
